<?xml version="1.0" standalone="no"?>
<!DOCTYPE svg PUBLIC "-//W3C//DTD SVG 1.1//EN"
"http://www.w3.org/Graphics/SVG/1.1/DTD/svg11.dtd">

<svg width="566" height="279" view_box="0 0 566 279"
xmlns="http://www.w3.org/2000/svg"
xmlns:link="http://www.w3.org/1999/xlink">\n\n<desc>Généré par Mocodo 2.3.7 le Thu, 03 Sep 2020 04:56:42</desc>

<rect id="frame" x="0" y="0" width="566" height="279" fill="#f5f5f5" stroke="none" stroke-width="0"/>

<!-- Association is tagged as -->
<line x1="255" y1="85" x2="379" y2="85" stroke="#bf812d" stroke-width="2"/>
<text x="308" y="102.0" fill="#01665e" font-family="Verdana" font-size="12">0,1</text>
<line x1="506" y1="85" x2="379" y2="85" stroke="#bf812d" stroke-width="2"/>
<text x="428" y="102.0" fill="#01665e" font-family="Verdana" font-size="12">0,N</text>
<g id="association-is tagged as">
	<path d="M 409 60 a 14 14 90 0 1 14 14 V 85 h -88 V 74 a 14 14 90 0 1 14 -14" fill="#dfc27d" stroke="#dfc27d" stroke-width="0"/>
	<path d="M 423 85.0 v 11 a 14 14 90 0 1 -14 14 H 349 a 14 14 90 0 1 -14 -14 V 85.0 H 88" fill="#f6e8c3" stroke="#f6e8c3" stroke-width="0"/>
	<rect x="335" y="60" width="88" height="50" fill="none" rx="14" stroke="#bf812d" stroke-width="2"/>
	<line x1="335" y1="85" x2="423" y2="85" stroke="#bf812d" stroke-width="1"/>
	<text x="342" y="77.7" fill="#000000" font-family="Verdana" font-size="12">is tagged as</text>
</g>

<!-- Association made -->
<line x1="51" y1="85" x2="150" y2="85" stroke="#bf812d" stroke-width="2"/>
<text x="98" y="102.0" fill="#01665e" font-family="Verdana" font-size="12">0,N</text>
<line x1="255" y1="85" x2="150" y2="85" stroke="#bf812d" stroke-width="2"/>
<text x="181" y="102.0" fill="#01665e" font-family="Verdana" font-size="12">1,1</text>
<g id="association-made">
	<path d="M 161 60 a 14 14 90 0 1 14 14 V 85 h -50 V 74 a 14 14 90 0 1 14 -14" fill="#dfc27d" stroke="#dfc27d" stroke-width="0"/>
	<path d="M 175 85.0 v 11 a 14 14 90 0 1 -14 14 H 139 a 14 14 90 0 1 -14 -14 V 85.0 H 50" fill="#f6e8c3" stroke="#f6e8c3" stroke-width="0"/>
	<rect x="125" y="60" width="50" height="50" fill="none" rx="14" stroke="#bf812d" stroke-width="2"/>
	<line x1="125" y1="85" x2="175" y2="85" stroke="#bf812d" stroke-width="1"/>
	<text x="132" y="77.7" fill="#000000" font-family="Verdana" font-size="12">made</text>
</g>

<!-- Association is a -->
<line x1="150" y1="228" x2="255" y2="228" stroke="#bf812d" stroke-width="2"/>
<text x="197" y="245.0" fill="#01665e" font-family="Verdana" font-size="12">0,N</text>
<line x1="255" y1="85" x2="255" y2="228" stroke="#bf812d" stroke-width="2"/>
<text x="260.0" y="178" fill="#01665e" font-family="Verdana" font-size="12">1,1</text>
<g id="association-is a">
	<path d="M 259 203 a 14 14 90 0 1 14 14 V 228 h -36 V 217 a 14 14 90 0 1 14 -14" fill="#dfc27d" stroke="#dfc27d" stroke-width="0"/>
	<path d="M 273 228.0 v 11 a 14 14 90 0 1 -14 14 H 251 a 14 14 90 0 1 -14 -14 V 228.0 H 36" fill="#f6e8c3" stroke="#f6e8c3" stroke-width="0"/>
	<rect x="237" y="203" width="36" height="50" fill="none" rx="14" stroke="#bf812d" stroke-width="2"/>
	<line x1="237" y1="228" x2="273" y2="228" stroke="#bf812d" stroke-width="1"/>
	<text x="244" y="220.7" fill="#000000" font-family="Verdana" font-size="12">is a</text>
</g>

<!-- Entity CATEGORY -->
<g id="entity-CATEGORY">
	<g id="frame-CATEGORY">
		<rect x="455" y="26" width="102" height="25" fill="#80cdc1" stroke="#80cdc1" stroke-width="0"/>
		<rect x="455" y="51.0" width="102" height="93" fill="#c7eae5" stroke="#c7eae5" stroke-width="0"/>
		<rect x="455" y="26" width="102" height="118" fill="none" stroke="#35978f" stroke-width="2"/>
		<line x1="455" y1="51" x2="557" y2="51" stroke="#35978f" stroke-width="1"/>
	</g>
	<text x="472" y="43.7" fill="#000000" font-family="Verdana" font-size="12">CATEGORY</text>
	<text x="460" y="68.7" fill="#000000" font-family="Verdana" font-size="12">id</text>
	<line x1="460" y1="71" x2="472" y2="71" stroke="#000000" stroke-width="1"/>
	<text x="460" y="85.8" fill="#000000" font-family="Verdana" font-size="12">category name</text>
	<text x="460" y="102.8" fill="#000000" font-family="Verdana" font-size="12">subtitle</text>
	<text x="460" y="119.8" fill="#000000" font-family="Verdana" font-size="12">picture</text>
	<text x="460" y="136.8" fill="#000000" font-family="Verdana" font-size="12">home order</text>
</g>

<!-- Entity BRAND -->
<g id="entity-BRAND">
	<g id="frame-BRAND">
		<rect x="9" y="43" width="84" height="25" fill="#80cdc1" stroke="#80cdc1" stroke-width="0"/>
		<rect x="9" y="68.0" width="84" height="59" fill="#c7eae5" stroke="#c7eae5" stroke-width="0"/>
		<rect x="9" y="43" width="84" height="84" fill="none" stroke="#35978f" stroke-width="2"/>
		<line x1="9" y1="68" x2="93" y2="68" stroke="#35978f" stroke-width="1"/>
	</g>
	<text x="29" y="60.7" fill="#000000" font-family="Verdana" font-size="12">BRAND</text>
	<text x="14" y="85.8" fill="#000000" font-family="Verdana" font-size="12">id</text>
	<line x1="14" y1="88" x2="26" y2="88" stroke="#000000" stroke-width="1"/>
	<text x="14" y="102.8" fill="#000000" font-family="Verdana" font-size="12">brand name</text>
	<text x="14" y="119.8" fill="#000000" font-family="Verdana" font-size="12">footer order</text>
</g>

<!-- Entity TYPE -->
<g id="entity-TYPE">
	<g id="frame-TYPE">
		<rect x="108" y="186" width="84" height="25" fill="#80cdc1" stroke="#80cdc1" stroke-width="0"/>
		<rect x="108" y="211.0" width="84" height="59" fill="#c7eae5" stroke="#c7eae5" stroke-width="0"/>
		<rect x="108" y="186" width="84" height="84" fill="none" stroke="#35978f" stroke-width="2"/>
		<line x1="108" y1="211" x2="192" y2="211" stroke="#35978f" stroke-width="1"/>
	</g>
	<text x="134" y="203.7" fill="#000000" font-family="Verdana" font-size="12">TYPE</text>
	<text x="113" y="228.8" fill="#000000" font-family="Verdana" font-size="12">id</text>
	<line x1="113" y1="231" x2="125" y2="231" stroke="#000000" stroke-width="1"/>
	<text x="113" y="245.8" fill="#000000" font-family="Verdana" font-size="12">type name</text>
	<text x="113" y="262.8" fill="#000000" font-family="Verdana" font-size="12">footer order</text>
</g>

<!-- Entity PRODUCT -->
<g id="entity-PRODUCT">
	<g id="frame-PRODUCT">
		<rect x="207" y="9" width="96" height="25" fill="#80cdc1" stroke="#80cdc1" stroke-width="0"/>
		<rect x="207" y="34.0" width="96" height="127" fill="#c7eae5" stroke="#c7eae5" stroke-width="0"/>
		<rect x="207" y="9" width="96" height="152" fill="none" stroke="#35978f" stroke-width="2"/>
		<line x1="207" y1="34" x2="303" y2="34" stroke="#35978f" stroke-width="1"/>
	</g>
	<text x="225" y="26.7" fill="#000000" font-family="Verdana" font-size="12">PRODUCT</text>
	<text x="212" y="51.7" fill="#000000" font-family="Verdana" font-size="12">id</text>
	<line x1="212" y1="54" x2="224" y2="54" stroke="#000000" stroke-width="1"/>
	<text x="212" y="68.7" fill="#000000" font-family="Verdana" font-size="12">product name</text>
	<text x="212" y="85.8" fill="#000000" font-family="Verdana" font-size="12">description</text>
	<text x="212" y="102.8" fill="#000000" font-family="Verdana" font-size="12">picture</text>
	<text x="212" y="119.8" fill="#000000" font-family="Verdana" font-size="12">price</text>
	<text x="212" y="136.8" fill="#000000" font-family="Verdana" font-size="12">rate</text>
	<text x="212" y="153.8" fill="#000000" font-family="Verdana" font-size="12">status</text>
</g>
</svg>